<svg width="594" height="476" viewBox="0 0 594 476" fill="none" xmlns="http://www.w3.org/2000/svg">
<path d="M303.813 0.908542C303.892 0.583884 303.931 0.421555 304.02 0.300601C304.1 0.19389 304.206 0.110325 304.328 0.0586139C304.467 0 304.634 0 304.968 0H528.256C564.551 0 593.975 30.4048 593.975 67.911V331.565C593.975 369.072 564.551 399.476 528.256 399.476H208.895C208.38 399.476 208.123 399.476 207.946 399.369C207.791 399.276 207.675 399.129 207.621 398.957C207.559 398.76 207.619 398.509 207.74 398.009L303.813 0.908542Z" fill="black"/>
<path d="M245.434 77.1283C245.554 76.6284 245.614 76.3784 245.552 76.1818C245.497 76.0094 245.382 75.8629 245.227 75.7697C245.05 75.6633 244.793 75.6633 244.279 75.6633H65.1601C29.1732 75.6633 0 106.068 0 143.574V407.228C0 444.735 29.1732 475.139 65.1601 475.139H286.534C286.869 475.139 287.036 475.139 287.175 475.081C287.297 475.029 287.404 474.945 287.483 474.838C287.572 474.717 287.611 474.554 287.689 474.229L296.034 439.44C296.154 438.94 296.214 438.69 296.152 438.493C296.097 438.321 295.982 438.174 295.827 438.081C295.65 437.975 295.393 437.975 294.879 437.975H160.383C159.869 437.975 159.612 437.975 159.435 437.868C159.28 437.775 159.165 437.629 159.11 437.456C159.048 437.26 159.108 437.01 159.228 436.51L245.434 77.1283Z" fill="black"/>
</svg>
